<svg xmlns="http://www.w3.org/2000/svg" xmlns:xlink="http://www.w3.org/1999/xlink" width="3106.737" height="1151.861" viewBox="0 0 3106.737 1151.861"><defs><style>.a{fill:url(#a);}.b{fill:url(#b);}</style><linearGradient id="a" x1="0.687" y1="1.185" x2="0.731" y2="-0.176" gradientUnits="objectBoundingBox"><stop offset="0" stop-color="#3be2ab"/><stop offset="1" stop-color="#3db1ff"/></linearGradient><linearGradient id="b" x1="0.455" y1="-0.037" x2="0.49" y2="1.081" xlink:href="#a"/></defs><g transform="translate(484.336 -6220.486)"><path class="a" d="M330.767,813.878c165.716,80.424,320.54,155.911,689.782,84.329S1319.9,788.72,1739.1,810.265s465.046,31.975,981.191,137.28,275.744-607.325-28.871-819.078S1804.9-71.7,1428.794,6.931,804.412,377.529,407.723,372.689,165.051,733.453,330.767,813.878Z" transform="translate(2535.467 7335.405) rotate(-177)"/><path class="b" d="M327.954,831.524C493.258,913,766.9,939.583,1136.1,865.059s419.441-92.461,732.44-75.169,318.984,46.525,837.151,135.843,297.729-603.965,13.8-790.789S1802.28-63.529,1426.2,18.216,1161.666,195.542,400.341,358.955,162.65,750.047,327.954,831.524Z" transform="translate(2620.221 7182.705) rotate(179)"/></g></svg>