<?xml version="1.0" encoding="utf-8"?>
<!-- Generator: Adobe Illustrator 25.2.2, SVG Export Plug-In . SVG Version: 6.00 Build 0)  -->
<svg version="1.1" id="Calque_1" xmlns="http://www.w3.org/2000/svg" xmlns:xlink="http://www.w3.org/1999/xlink" x="0px" y="0px"
	 viewBox="0 0 144 144" style="enable-background:new 0 0 144 144;" xml:space="preserve">
<style type="text/css">
	.st0{fill:#181e23;}
</style>
<g>
	<path class="st0" d="M71.88,21.39c16.57,0,18.53,0.06,25.08,0.36c6.05,0.28,9.34,1.29,11.52,2.14c2.9,1.13,4.96,2.47,7.13,4.64
		c2.17,2.17,3.52,4.24,4.64,7.13c0.85,2.19,1.86,5.47,2.14,11.52c0.3,6.54,0.36,8.51,0.36,25.08c0,16.57-0.06,18.53-0.36,25.08
		c-0.28,6.05-1.29,9.33-2.14,11.52c-1.12,2.9-2.47,4.96-4.64,7.13c-2.17,2.17-4.24,3.52-7.13,4.64c-2.19,0.85-5.47,1.86-11.52,2.14
		c-6.54,0.3-8.5,0.36-25.08,0.36c-16.57,0-18.53-0.06-25.08-0.36c-6.05-0.28-9.34-1.29-11.52-2.14c-2.9-1.13-4.96-2.47-7.13-4.64
		c-2.17-2.17-3.52-4.24-4.64-7.13c-0.85-2.19-1.86-5.47-2.14-11.52C21.06,90.8,21,88.83,21,72.27c0-16.57,0.06-18.54,0.36-25.08
		c0.28-6.05,1.29-9.34,2.14-11.52c1.12-2.9,2.47-4.96,4.64-7.13c2.17-2.17,4.23-3.52,7.13-4.64c2.19-0.85,5.47-1.86,11.52-2.14
		C53.34,21.45,55.31,21.39,71.88,21.39 M71.88,10.21c-16.85,0-18.97,0.07-25.58,0.37c-6.61,0.3-11.12,1.35-15.07,2.88
		c-4.08,1.58-7.54,3.71-10.99,7.16c-3.45,3.45-5.57,6.91-7.16,10.99c-1.53,3.95-2.59,8.46-2.88,15.06
		c-0.31,6.62-0.38,8.73-0.38,25.59c0,16.85,0.07,18.97,0.38,25.59c0.3,6.6,1.35,11.12,2.88,15.06c1.59,4.08,3.71,7.54,7.16,10.99
		c3.45,3.45,6.91,5.57,10.99,7.16c3.95,1.53,8.46,2.58,15.07,2.88c6.62,0.3,8.73,0.37,25.58,0.37c16.85,0,18.97-0.07,25.59-0.37
		c6.6-0.3,11.12-1.35,15.06-2.88c4.08-1.58,7.54-3.71,10.99-7.16c3.45-3.45,5.57-6.91,7.16-10.99c1.54-3.95,2.58-8.46,2.89-15.06
		c0.3-6.62,0.37-8.73,0.37-25.59c0-16.85-0.07-18.97-0.37-25.59c-0.3-6.6-1.35-11.12-2.89-15.06c-1.58-4.08-3.71-7.54-7.16-10.99
		c-3.45-3.45-6.91-5.58-10.99-7.16c-3.95-1.53-8.46-2.58-15.06-2.88C90.85,10.28,88.73,10.21,71.88,10.21"/>
	<path class="st0" d="M71.88,40.4c-17.6,0-31.87,14.26-31.87,31.87c0,17.6,14.27,31.87,31.87,31.87c17.6,0,31.87-14.26,31.87-31.87
		C103.74,54.66,89.48,40.4,71.88,40.4 M71.88,92.95c-11.42,0-20.69-9.26-20.69-20.69c0-11.43,9.26-20.69,20.69-20.69
		c11.42,0,20.69,9.26,20.69,20.69C92.56,83.69,83.3,92.95,71.88,92.95"/>
	<path class="st0" d="M112.45,39.14c0,4.11-3.33,7.45-7.45,7.45c-4.11,0-7.45-3.33-7.45-7.45c0-4.11,3.34-7.45,7.45-7.45
		C109.12,31.69,112.45,35.02,112.45,39.14"/>
</g>
</svg>
