<svg xmlns="http://www.w3.org/2000/svg" xmlns:xlink="http://www.w3.org/1999/xlink" width="701.645" height="706.171" viewBox="0 0 701.645 706.171"><defs><style>.a{fill:url(#a);}.b{fill:#ff3030;}</style><linearGradient id="a" x1="0.219" y1="0.701" x2="1.515" y2="-0.312" gradientUnits="objectBoundingBox"><stop offset="0" stop-color="#fb9e33"/><stop offset="1" stop-color="#ff3030"/></linearGradient></defs><g transform="translate(0)"><g transform="translate(0 0)"><path class="a" d="M737.626,324.45s-55.073-96.363-160.118-99.143S416.66,264.9,359.256,289.24,217.941,338.446,116.529,368,106.223,484.112,73.695,572.771c-.52,1.419.577-1.7,0,0-30.108,88.49-47.424,188.51,97.553,179.957C318.583,744.036,372.159,810.1,435.3,863.986s302.323,41.722,302.323,41.722V324.45Z" transform="translate(-53.101 -225.177)"/><path class="b" d="M732.247,323.829s-54.64-95.76-158.86-98.522S413.8,264.654,356.851,288.839s-140.2,48.9-240.82,78.265-10.225,115.386-42.5,203.49c-.516,1.41.573-1.686,0,0-29.871,87.936-47.052,187.33,96.786,178.831C316.5,740.787,369.652,806.433,432.3,859.986s299.948,41.46,299.948,41.46V323.829Z" transform="translate(-30.602 -196.445)"/></g></g></svg>