<?xml version="1.0" encoding="utf-8"?>
<!-- Generator: Adobe Illustrator 25.2.2, SVG Export Plug-In . SVG Version: 6.00 Build 0)  -->
<svg version="1.1" id="Calque_1" xmlns="http://www.w3.org/2000/svg" xmlns:xlink="http://www.w3.org/1999/xlink" x="0px" y="0px"
	 viewBox="0 0 144 144" style="enable-background:new 0 0 144 144;" xml:space="preserve">
<style type="text/css">
	.st0{fill:#181e23;}
</style>
<path id="XMLID_1_" class="st0" d="M74.46,10.21c-34.89,0-52.49,24.21-52.49,44.4c0,3.73,0.45,7.33,1.37,10.66
	c2.07,7.56,6.55,13.68,13.67,16.5c1.69,0.66,3.2,0.02,3.68-1.79c0.34-1.25,1.14-4.39,1.5-5.71c0.48-1.78,0.3-2.4-1.06-3.96
	c-1.78-2.02-3.16-4.42-3.99-7.34c-0.55-1.95-0.87-4.12-0.87-6.59c0-17.96,13.9-34.05,36.17-34.05c19.72,0,30.56,11.66,30.56,27.23
	c0,4.59-0.47,9.01-1.36,13.12c-3.07,14.25-11.13,24.67-21.92,24.67c-7.69,0-13.45-6.14-11.6-13.68c1.06-4.29,2.58-8.74,3.88-12.93
	c1.43-4.6,2.61-8.89,2.61-12.29c0-5.81-3.23-10.66-9.9-10.66c-7.86,0-14.17,7.86-14.17,18.39c0,1.99,0.21,3.78,0.5,5.32
	c0.69,3.68,1.85,5.94,1.85,5.94s-8.04,32.95-9.45,38.73c-2.8,11.5-0.42,25.59-0.22,27.01c0.12,0.85,1.24,1.05,1.75,0.41
	c0.73-0.91,10.08-12.09,13.26-23.25c0.9-3.18,5.16-19.54,5.16-19.54c2.55,4.71,10.02,8.86,17.94,8.86
	c19.23,0,33.42-13.82,38.02-34.01c1.05-4.6,1.6-9.53,1.6-14.7C120.96,29.84,102.51,10.21,74.46,10.21z"/>
</svg>
